<svg height="480pt" viewBox="0 0 480 480.23982" width="480pt" xmlns="http://www.w3.org/2000/svg"><path d="m448.324219 344h-416v32l80 32-56 24 8 24 176-24 176 24 8-24-56-24 80-32zm0 0" fill="#e94f4f"/><path d="m413.972656 217.015625 34.351563 62.984375h24v-79.792969c0-61.96875-50.234375-112.207031-112.207031-112.207031-43.765626 0-83.539063 25.445312-101.878907 65.183594l-17.914062 38.816406h131.503906c17.570313 0 33.734375 9.59375 42.144531 25.015625zm0 0" fill="#4db7e5"/><path d="m136.324219 192h208v104c0 57.4375-46.5625 104-104 104s-104-46.5625-104-104zm0 0" fill="#ebebe9"/><path d="m317.484375 192c-25.628906 76.417969-80.878906 139.335938-153.34375 174.632812 29.042969 31.414063 74.375 41.8125 114.207031 26.199219 39.832032-15.613281 66.019532-54.046875 65.976563-96.832031v-104zm0 0" fill="#e0e0de"/><path d="m344.324219 192h-200v-80l-104-72v-32h152.753906c30.765625 0 60.800781 9.382812 86.097656 26.898438 40.800781 28.25 65.148438 74.722656 65.148438 124.351562zm0 0" fill="#e94f4f"/><path d="m256.40625 67.785156c-18.589844-12.914062-40.691406-19.820312-63.328125-19.785156h-64.753906v-16h64.753906c25.886719-.035156 51.167969 7.859375 72.433594 22.625zm0 0" fill="#f26666"/><path d="m96.542969 32h15.78125v16h-15.78125zm0 0" fill="#f26666"/><path d="m66.679688 217.015625-34.355469 62.984375h-24v-79.792969c0-61.96875 50.238281-112.207031 112.210937-112.207031 43.765625 0 83.539063 25.445312 101.878906 65.183594l17.910157 38.816406h-131.503907c-17.566406 0-33.730468 9.59375-42.140624 25.015625zm0 0" fill="#4db7e5"/><g fill="#79c6e8"><path d="m432.324219 198.800781c-.59375-25.222656-14.21875-48.332031-36-61.0625l8-13.832031c26.617187 15.539062 43.273437 43.769531 44 74.582031zm0 0"/><path d="m381.925781 131.359375c-4.683593-1.492187-9.507812-2.492187-14.398437-2.984375l1.597656-15.917969c5.976562.609375 11.875 1.832031 17.601562 3.65625zm0 0"/><path d="m98.726562 131.359375-4.800781-15.246094c5.726563-1.824219 11.625-3.046875 17.601563-3.65625l1.597656 15.917969c-4.890625.492188-9.714844 1.492188-14.398438 2.984375zm0 0"/><path d="m48.324219 198.800781-16-.3125c.730469-30.8125 17.386719-59.042969 44-74.582031l8 13.832031c-21.777344 12.730469-35.402344 35.839844-36 61.0625zm0 0"/></g><path d="m56.324219 32c0 13.253906-10.742188 24-24 24-13.253907 0-24-10.746094-24-24s10.746093-24 24-24c13.257812 0 24 10.746094 24 24zm0 0" fill="#fdbb3d"/><path d="m56.324219 288c0 13.253906-10.742188 24-24 24-13.253907 0-24-10.746094-24-24s10.746093-24 24-24c13.257812 0 24 10.746094 24 24zm0 0" fill="#fdbb3d"/><path d="m472.324219 288c0 13.253906-10.742188 24-24 24-13.253907 0-24-10.746094-24-24s10.746093-24 24-24c13.257812 0 24 10.746094 24 24zm0 0" fill="#fdbb3d"/><path d="m56.324219 368c0 13.253906-10.742188 24-24 24-13.253907 0-24-10.746094-24-24s10.746093-24 24-24c13.257812 0 24 10.746094 24 24zm0 0" fill="#fdbb3d"/><path d="m200.324219 234.226562v-18.226562h-16v18.226562c-2.386719 1.394532-4.375 3.386719-5.773438 5.773438h-18.226562v16h18.226562c1.398438 2.390625 3.386719 4.378906 5.773438 5.777344v18.222656h16v-18.222656c2.390625-1.398438 4.378906-3.386719 5.777343-5.777344h18.222657v-16h-18.222657c-1.398437-2.386719-3.386718-4.378906-5.777343-5.773438zm0 0" fill="#8c4b32"/><path d="m320.324219 240h-18.222657c-1.398437-2.386719-3.386718-4.378906-5.777343-5.773438v-18.226562h-16v18.226562c-2.386719 1.394532-4.375 3.386719-5.773438 5.773438h-18.226562v16h18.226562c1.398438 2.390625 3.386719 4.378906 5.773438 5.777344v18.222656h16v-18.222656c2.390625-1.398438 4.378906-3.386719 5.777343-5.777344h18.222657zm0 0" fill="#8c4b32"/><path d="m240.324219 352c-26.507813 0-48-21.488281-48-48h96c0 26.511719-21.488281 48-48 48zm0 0" fill="#e94f4f"/><path d="m88.324219 448c0 13.253906-10.742188 24-24 24-13.253907 0-24-10.746094-24-24s10.746093-24 24-24c13.257812 0 24 10.746094 24 24zm0 0" fill="#fdbb3d"/><path d="m472.324219 368c0 13.253906-10.742188 24-24 24-13.253907 0-24-10.746094-24-24s10.746093-24 24-24c13.257812 0 24 10.746094 24 24zm0 0" fill="#fdbb3d"/><path d="m440.324219 448c0 13.253906-10.742188 24-24 24-13.253907 0-24-10.746094-24-24s10.746093-24 24-24c13.257812 0 24 10.746094 24 24zm0 0" fill="#fdbb3d"/><path d="m132.324219 280h4v-56h-4c-15.460938 0-28 12.535156-28 28s12.539062 28 28 28zm0 0" fill="#e0e0de"/><path d="m348.324219 224h-4v56h4c15.464843 0 28-12.535156 28-28s-12.535157-28-28-28zm0 0" fill="#e0e0de"/><path d="m360.085938 80c-9.144532.003906-18.257813 1.078125-27.152344 3.199219-27.804688-51.324219-81.515625-83.2695315-139.886719-83.199219h-160.722656c-13.96875-.0898438-26.386719 8.898438-30.664063 22.199219-4.28125 13.300781.5625 27.839843 11.964844 35.914062 11.402344 8.078125 26.726562 7.820313 37.851562-.632812l38.480469 26.632812c-1.464843.382813-3.015625.671875-4.4375 1.113281-50.753906 15.214844-85.4335935 62.03125-85.195312 115.015626v87.757812c-.058594 15.128906 10.480469 28.234375 25.273437 31.414062 14.789063 3.183594 29.789063-4.429687 35.953125-18.246093 6.164063-13.816407 1.808594-30.0625-10.441406-38.941407l22.550781-41.339843c7.027344-12.851563 20.496094-20.855469 35.144532-20.886719h19.519531v16.410156c-18.234375 1.894532-32.085938 17.265625-32.085938 35.597656 0 18.335938 13.851563 33.703126 32.085938 35.601563v8.390625c.023437 13.683594 2.570312 27.242188 7.515625 40h-103.515625c-17.671875 0-32 14.328125-32 32s14.328125 32 32 32c7.359375-.03125 14.476562-2.621094 20.128906-7.328125l38.953125 15.578125-20.054688 8.550781c-16.585937-3.765625-33.21875 6.101563-37.867187 22.460938-4.648437 16.355469 4.3125 33.492187 20.398437 39.011719 16.085938 5.519531 33.675782-2.507813 40.050782-18.273438l146.402344-20 146.398437 20c6.335937 15.902344 24.03125 24.046875 40.230469 18.515625 16.203125-5.527344 25.226562-22.789063 20.519531-39.246094-4.707031-16.460937-21.492187-26.339843-38.167969-22.46875l-20.054687-8.585937 38.953125-15.574219c5.644531 4.714844 12.753906 7.316406 20.109375 7.359375 17.675781 0 32-14.328125 32-32s-14.324219-32-32-32h-103.511719c4.945312-12.757812 7.492188-26.316406 7.511719-40v-8.40625c18.238281-1.898438 32.089843-17.265625 32.089843-35.601562 0-18.332032-13.851562-33.703126-32.089843-35.597657v-16.394531h19.523437c14.636719.027344 28.101563 8.023438 35.132813 20.863281l22.5625 41.363281c-12.1875 8.886719-16.496094 25.085938-10.335938 38.855469 6.15625 13.769531 21.105469 21.355469 35.855469 18.199219s25.28125-16.199219 25.261719-31.28125v-87.757812c-.070313-66.378907-53.859375-120.171876-120.238281-120.242188zm-85.425782-38.527344c19.03125 13.199219 34.582032 30.808594 45.320313 51.328125.597656 1.074219 1.128906 2.183594 1.601562 3.320313 9.761719 19.621094 14.808594 41.246094 14.742188 63.160156v24.71875h-90.886719l-15.757812-34.128906c-19.59375-42.609375-62.214844-69.902344-109.113282-69.871094-2.65625 0-5.28125.191406-7.90625.367188l-51.132812-35.398438c4.246094-9.339844 3.628906-20.171875-1.648438-28.96875h133.167969c29.167969-.035156 57.644531 8.855469 81.613281 25.472656zm-242.335937 6.527344c-8.835938 0-16-7.164062-16-16s7.164062-16 16-16c8.839843 0 16 7.164062 16 16s-7.160157 16-16 16zm0 256c-8.835938 0-16-7.164062-16-16s7.164062-16 16-16c8.839843 0 16 7.164062 16 16s-7.160157 16-16 16zm27.296875-90.792969-23.542969 43.203125c-1.242187-.210937-2.496094-.347656-3.753906-.410156-5.632813.035156-11.15625 1.570312-16 4.449219v-60.207031c-.203125-45.949219 29.878906-86.546876 73.898437-99.722657 6.792969-2.078125 13.785156-3.445312 20.863282-4.078125 3.113281-.296875 6.296874-.441406 9.480468-.441406 40.648438-.023438 77.585938 23.625 94.574219 60.550781l12.679687 27.449219h-119.015624c-20.496094.03125-39.347657 11.226562-49.183594 29.207031zm180.703125-13.207031h96v96c0 53.019531-42.980469 96-96 96-53.015625 0-96-42.980469-96-96v-96zm-128 52c0-9.503906 6.6875-17.699219 16-19.597656v39.199218c-9.3125-1.902343-16-10.09375-16-19.601562zm-80 132c-8.835938 0-16-7.164062-16-16s7.164062-16 16-16c8.839843 0 16 7.164062 16 16s-7.160157 16-16 16zm32 80c-8.835938 0-16-7.164062-16-16s7.164062-16 16-16c8.839843 0 16 7.164062 16 16s-7.160157 16-16 16zm368-16c0 8.835938-7.160157 16-16 16-8.835938 0-16-7.164062-16-16s7.164062-16 16-16c8.839843 0 16 7.164062 16 16zm32-80c0 8.835938-7.160157 16-16 16-8.835938 0-16-7.164062-16-16s7.164062-16 16-16c8.839843 0 16 7.164062 16 16zm-43.550781-16c-4.988282 8.246094-5.828126 18.351562-2.28125 27.3125l-53.140626 21.257812c-3.007812 1.203126-4.992187 4.097657-5.027343 7.335938-.035157 3.234375 1.878906 6.175781 4.859375 7.445312l27.199218 11.632813c-4.117187 4.679687-6.765624 10.464844-7.617187 16.640625l-143.359375-19.550781c-.71875-.097657-1.445312-.097657-2.160156 0l-143.359375 19.550781c-.851563-6.175781-3.5-11.960938-7.617188-16.640625l27.199219-11.632813c2.976562-1.269531 4.894531-4.210937 4.859375-7.445312-.039063-3.238281-2.019531-6.132812-5.027344-7.335938l-53.144531-21.257812c3.550781-8.960938 2.707031-19.066406-2.277344-27.3125h83.597656c19.941407 34.648438 56.875 56.003906 96.847657 56.003906 39.976562 0 76.910156-21.355468 96.851562-56.003906zm-52.449219-100c.003906 9.507812-6.683594 17.699219-16 19.601562v-39.199218c9.316406 1.898437 16.003906 10.09375 16 19.597656zm80 52c-8.835938 0-16-7.164062-16-16s7.164062-16 16-16c8.839843 0 16 7.164062 16 16s-7.160157 16-16 16zm16-43.550781c-4.839844-2.878907-10.363281-4.414063-16-4.449219-1.253907.050781-2.507813.179688-3.75.375l-23.558594-43.199219c-9.839844-17.964843-28.683594-29.148437-49.167969-29.175781h-19.523437v-24.71875c.066406-21.039062-4.121094-41.875-12.300781-61.257812 6.601562-1.335938 13.324218-2.011719 20.0625-2.023438 57.542968.066406 104.175781 46.699219 104.238281 104.242188zm0 0"/><path d="m404.324219 123.90625-8 13.832031c21.78125 12.730469 35.40625 35.839844 36 61.0625l16-.3125c-.726563-30.8125-17.382813-59.042969-44-74.582031zm0 0"/><path d="m367.527344 128.375c4.890625.492188 9.714844 1.492188 14.398437 2.984375l4.847657-15.246094c-5.722657-1.824219-11.621094-3.046875-17.597657-3.65625zm0 0"/><path d="m256.40625 67.785156 9.105469-13.160156c-21.265625-14.765625-46.546875-22.660156-72.433594-22.625h-64.753906v16h64.753906c22.636719-.035156 44.738281 6.871094 63.328125 19.785156zm0 0"/><path d="m96.542969 32h15.78125v16h-15.78125zm0 0"/><path d="m93.925781 116.113281 4.800781 15.246094c4.683594-1.492187 9.507813-2.492187 14.398438-2.984375l-1.597656-15.917969c-5.976563.609375-11.875 1.832031-17.601563 3.65625zm0 0"/><path d="m32.324219 198.488281 16 .3125c.597656-25.222656 14.222656-48.332031 36-61.0625l-8-13.832031c-26.613281 15.539062-43.269531 43.769531-44 74.582031zm0 0"/><path d="m184.324219 261.777344v18.222656h16v-18.222656c2.390625-1.398438 4.378906-3.386719 5.777343-5.777344h18.222657v-16h-18.222657c-1.398437-2.386719-3.386718-4.378906-5.777343-5.773438v-18.226562h-16v18.226562c-2.386719 1.394532-4.375 3.386719-5.773438 5.773438h-18.226562v16h18.226562c1.398438 2.390625 3.386719 4.378906 5.773438 5.777344zm0 0"/><path d="m280.324219 261.777344v18.222656h16v-18.222656c2.390625-1.398438 4.378906-3.386719 5.777343-5.777344h18.222657v-16h-18.222657c-1.398437-2.386719-3.386718-4.378906-5.777343-5.773438v-18.226562h-16v18.226562c-2.386719 1.394532-4.375 3.386719-5.773438 5.773438h-18.226562v16h18.226562c1.398438 2.390625 3.386719 4.378906 5.773438 5.777344zm0 0"/><path d="m184.324219 304c0 30.929688 25.074219 56 56 56 30.929687 0 56-25.070312 56-56 0-4.417969-3.578125-8-8-8h-96c-4.417969 0-8 3.582031-8 8zm95.203125 8c-3.785156 18.644531-20.179688 32.039062-39.203125 32.039062-19.019531 0-35.414063-13.394531-39.199219-32.039062zm0 0"/></svg>